<?xml version="1.0" encoding="utf-8"?>
<!-- Generator: Adobe Illustrator 22.1.0, SVG Export Plug-In . SVG Version: 6.00 Build 0)  -->
<svg version="1.1" id="Layer_1" xmlns="http://www.w3.org/2000/svg" xmlns:xlink="http://www.w3.org/1999/xlink" x="0px" y="0px"
	 viewBox="0 0 199.4 40" style="enable-background:new 0 0 199.4 40;" xml:space="preserve">
<style type="text/css">
	.st0{fill:#022D4B;}
	.st1{fill:#FF0800;}
</style>
<g>
	<g>
		<g>
			<path class="st0" d="M23.2,30.7c-0.3,0-0.5,0-0.6,0c-7.3,0-14.5,0-21.8,0c-0.8,0-0.8,0-0.8-0.8c0-2.4,0-4.7,0-7.1
				c0-0.7,0.2-1.2,0.6-1.7c1.3-1.4,2.5-2.9,3.8-4.4c2.4-2.8,4.8-5.7,7.2-8.6c-2.5,0-4.9,0-7.3,0c0.5,0.9,1.1,1.8,1.6,2.6
				c0.8,1.3,0.8,1.4-0.2,2.6c-1.7,2-3.4,4-5.1,6c-0.1,0.2-0.3,0.4-0.5,0.3C-0.1,19.6,0,19.4,0,19.2C0,14,0,8.8,0,3.6
				C0,3.2,0.1,3,0.6,3C8,3,15.5,3,22.9,3c0.1,0,0.1,0,0.3,0c-6.3,7.5-12.5,15-18.9,22.3c2.4,0,4.7,0,7,0c-0.8-1-1.6-2-2.5-3
				c-0.2-0.3-0.1-0.4,0-0.5c0.4-0.5,0.9-0.9,1.3-1.4c0.6-0.7,1.4-1.4,2.1-2.1c0.3-0.3,0.6-0.3,0.8,0c1.7,2,3.4,4.1,5.1,6.1
				c1.5,1.8,3,3.6,4.5,5.4C22.8,30.1,23,30.4,23.2,30.7z"/>
		</g>
		<g>
			<path class="st0" d="M34.8,30.7c-2.4,0-4.7,0-7,0c-0.5,0-0.8-0.1-1.2-0.6c-1.3-1.7-2.8-3.3-4.1-4.9c-1-1.2-2-2.5-3-3.8
				c-1-1.2-2-2.4-3-3.5c-0.2-0.2-0.4-0.5-0.6-0.7c-0.2-0.3-0.2-0.7,0.1-1c2-2.3,4-4.6,5.9-7c1.5-1.8,3-3.5,4.4-5.3
				C26.9,3.2,27.5,3,28.2,3c2.2,0,4.3,0,6.6,0c-0.7,0.8-1.3,1.6-1.9,2.4c-2.3,2.8-4.5,5.7-6.8,8.5c-0.6,0.8-1.3,1.6-1.9,2.4
				c-0.3,0.4-0.3,0.7,0,1c2,2.5,4,5,6,7.5c1.4,1.8,2.9,3.6,4.3,5.4C34.7,30.4,34.7,30.5,34.8,30.7z"/>
		</g>
		<g>
			<path class="st0" d="M33.4,14.6c-1.2,1.5-2.4,2.8-3.5,4.2c-0.3,0.3-0.6,0.3-0.9,0.3c-1.3,0-1.3,0-1.3-1.3c0-0.9,0-1.9,0-2.8
				c0-0.3,0.1-0.4,0.4-0.4C29.7,14.6,31.5,14.6,33.4,14.6z"/>
		</g>
	</g>
	<g>
		<path class="st1" d="M56.4,16.4c2.3,1.1,3.7,3.2,3.7,5.8c0,3.9-3.3,6.8-7.8,6.8h-11V5.1h10.8c4.2,0,7.3,2.6,7.3,6.1
			C59.4,13.4,58.2,15.3,56.4,16.4L56.4,16.4z M53.2,12.3c0-1.2-0.8-2.1-2.2-2.1h-3.3v4.2H51C52.3,14.4,53.2,13.6,53.2,12.3
			L53.2,12.3z M53.6,21.4c0-1.3-0.9-2.2-2.4-2.2h-3.6v4.3h3.6C52.6,23.6,53.6,22.7,53.6,21.4z"/>
		<path class="st1" d="M73.2,13.2v5h-2.1c-1.9,0-2.7,0.8-2.7,2.9v8h-5.4V13.2h3.6l0.9,1.8c1.1-1.3,2.5-1.8,4.4-1.8H73.2z"/>
		<path class="st1" d="M91.9,13.2V29h-4.2l-0.5-1.1c-1.3,1-2.9,1.7-4.8,1.7c-4.8,0-8.3-3.5-8.3-8.4c0-4.9,3.5-8.4,8.3-8.4
			c1.9,0,3.5,0.6,4.8,1.7l0.6-1.2L91.9,13.2z M86.7,21.1c0-2.1-1.5-3.6-3.5-3.6c-2.1,0-3.5,1.5-3.5,3.6c0,2.1,1.5,3.6,3.5,3.6
			S86.7,23.2,86.7,21.1z"/>
		<path class="st1" d="M95.3,13.2h5.4V29h-5.4V13.2z M95.3,6.6h5.4v4.6h-5.4V6.6z"/>
		<path class="st1" d="M119.8,19.4V29h-5.4v-8.9c0-1.8-0.7-2.8-2.1-2.8c-1.7,0-2.7,1.2-2.7,3.2V29h-5.4V13.2h3.8l0.7,1.6
			c1.2-1.3,2.9-2.1,5-2.1C117.4,12.8,119.8,15.4,119.8,19.4z"/>
		<path class="st1" d="M139.2,23.3V29h-15.6V5.1H139v5.7h-8.7v3.5h7.9v5.4h-7.9v3.6H139.2z"/>
		<path class="st1" d="M159.1,7.5V29h-4l-0.5-1.2c-1.3,1.1-2.9,1.7-4.8,1.7c-4.9,0-8.3-3.5-8.3-8.4s3.5-8.4,8.3-8.4
			c1.5,0,2.8,0.4,3.9,1.1V7.5H159.1z M154.1,21.1c0-2.1-1.5-3.6-3.5-3.6s-3.5,1.6-3.5,3.6c0,2.1,1.5,3.6,3.5,3.6
			S154.1,23.2,154.1,21.1z"/>
		<path class="st1" d="M178.9,13.2v14.1c0,5-3.3,8-8.5,8c-4.5,0-7.6-2.3-8.4-6h5.3c0.4,1.1,1.7,1.6,3,1.6c1.8,0,3.3-1.2,3.3-3v-0.5
			c-1.2,0.8-2.6,1.2-4.1,1.2c-4.5,0-7.9-3.4-7.9-7.9c0-4.5,3.4-8,7.9-8c1.9,0,3.6,0.7,5,1.8l0.7-1.3H178.9z M173.8,20.7
			c0-2-1.4-3.4-3.4-3.4c-2,0-3.4,1.4-3.4,3.4c0,2,1.4,3.5,3.4,3.5C172.4,24.1,173.8,22.7,173.8,20.7z"/>
		<path class="st1" d="M198.6,21c0,0.5,0,1-0.1,1.4h-11.7c0.4,1.8,1.5,2.8,3.2,2.8c1.3,0,2.3-0.6,2.9-1.5h5.4
			c-1.1,3.6-4.3,5.9-8.3,5.9c-4.9,0-8.6-3.6-8.6-8.4c0-4.8,3.6-8.4,8.6-8.4C195.1,12.7,198.6,16.3,198.6,21L198.6,21z M186.9,19.4
			h6.4c-0.5-1.6-1.6-2.4-3.3-2.4C188.4,17,187.3,17.8,186.9,19.4z"/>
	</g>
</g>
</svg>
